<svg xmlns="http://www.w3.org/2000/svg" xmlns:xlink="http://www.w3.org/1999/xlink" width="300" zoomAndPan="magnify" viewBox="0 0 224.87999 225" height="300" preserveAspectRatio="xMidYMid meet" version="1.0"><defs><g/><clipPath id="d97b5d874e"><path d="M 0 0.0585938 L 224.761719 0.0585938 L 224.761719 224.9375 L 0 224.9375 Z M 0 0.0585938 " clip-rule="nonzero"/></clipPath><clipPath id="ca63e50000"><path d="M 33 22.546875 L 191 22.546875 L 191 189 L 33 189 Z M 33 22.546875 " clip-rule="nonzero"/></clipPath><clipPath id="365c71814a"><path d="M 30.019531 117 L 47 117 L 47 134 L 30.019531 134 Z M 30.019531 117 " clip-rule="nonzero"/></clipPath><clipPath id="c050e6ad99"><path d="M 30.019531 162 L 48 162 L 48 177 L 30.019531 177 Z M 30.019531 162 " clip-rule="nonzero"/></clipPath><clipPath id="0d3b305220"><path d="M 177 167 L 194.933594 167 L 194.933594 182 L 177 182 Z M 177 167 " clip-rule="nonzero"/></clipPath><clipPath id="51fe9c8748"><path d="M 121 192 L 135 192 L 135 202.453125 L 121 202.453125 Z M 121 192 " clip-rule="nonzero"/></clipPath></defs><g clip-path="url(#d97b5d874e)"><path fill="#ffffff" d="M 0 0.0585938 L 224.878906 0.0585938 L 224.878906 224.941406 L 0 224.941406 Z M 0 0.0585938 " fill-opacity="1" fill-rule="nonzero"/><path fill="#333652" d="M 0 0.0585938 L 224.878906 0.0585938 L 224.878906 224.941406 L 0 224.941406 Z M 0 0.0585938 " fill-opacity="1" fill-rule="nonzero"/></g><g clip-path="url(#ca63e50000)"><path fill="#ffffff" d="M 190.367188 150.347656 C 190.105469 147.714844 188.71875 145.511719 186.554688 144.300781 C 183.617188 142.652344 179.652344 144.019531 175.816406 145.339844 C 173.65625 146.082031 171.421875 146.855469 169.84375 146.855469 C 166.65625 146.855469 163.238281 144.691406 161.949219 143.789062 C 161.671875 123.78125 160.484375 98.769531 156.449219 91.515625 C 154.042969 87.199219 150.007812 84.140625 144.457031 82.414062 C 143.734375 80.921875 141.722656 76.417969 141.324219 71.601562 C 140.828125 65.566406 142.722656 24.574219 142.742188 24.160156 C 142.777344 23.375 142.167969 22.707031 141.382812 22.667969 C 140.585938 22.636719 139.925781 23.242188 139.890625 24.027344 C 139.8125 25.722656 137.96875 65.621094 138.480469 71.835938 C 138.792969 75.605469 139.996094 79.191406 140.953125 81.535156 C 136.570312 80.703125 133.089844 80.925781 132.914062 80.9375 C 132.128906 80.992188 131.539062 81.675781 131.589844 82.460938 C 131.644531 83.246094 132.324219 83.839844 133.109375 83.785156 C 133.160156 83.78125 137.910156 83.480469 143.039062 84.957031 C 143.046875 84.960938 143.054688 84.964844 143.0625 84.96875 C 148.179688 86.445312 151.84375 89.113281 153.957031 92.902344 C 156.917969 98.222656 158.746094 116.5625 159.109375 144.539062 C 159.132812 146.453125 159.148438 148.238281 159.15625 149.863281 C 159.167969 151.996094 158.347656 154 156.84375 155.507812 C 155.34375 157.019531 153.34375 157.847656 151.210938 157.847656 L 144.585938 157.847656 C 142.15625 157.847656 140.183594 155.871094 140.183594 153.441406 L 140.183594 122.398438 C 140.183594 120.945312 140.75 119.578125 141.777344 118.550781 C 142.804688 117.523438 144.167969 116.957031 145.621094 116.957031 C 148.621094 116.957031 151.058594 119.398438 151.058594 122.398438 L 151.058594 150.796875 C 151.058594 151.585938 151.699219 152.226562 152.484375 152.226562 C 153.273438 152.226562 153.914062 151.585938 153.914062 150.796875 L 153.914062 122.398438 C 153.914062 117.824219 150.191406 114.105469 145.621094 114.105469 C 143.40625 114.105469 141.324219 114.96875 139.757812 116.535156 C 139.171875 117.125 138.679688 117.785156 138.300781 118.496094 C 137.960938 118.015625 137.578125 117.558594 137.152344 117.132812 C 135.203125 115.179688 132.605469 114.105469 129.839844 114.105469 C 126.050781 114.105469 122.730469 116.160156 120.929688 119.210938 C 120.257812 118.066406 119.363281 117.050781 118.285156 116.230469 C 121.234375 112.109375 122.269531 107.984375 122.3125 107.792969 C 122.5 107.027344 122.03125 106.257812 121.265625 106.070312 C 120.503906 105.882812 119.730469 106.351562 119.542969 107.117188 C 119.53125 107.160156 118.402344 111.679688 115.117188 115.679688 C 114.121094 116.886719 113.019531 117.9375 111.839844 118.792969 C 108.867188 120.945312 105.847656 121.300781 103.011719 121.480469 C 102.585938 121.507812 102.164062 121.53125 101.742188 121.550781 C 99.023438 121.699219 96.210938 121.851562 93.390625 123.074219 C 88.167969 125.339844 85.351562 130.070312 84.363281 132.050781 L 74.800781 132.050781 C 74.015625 132.050781 73.375 132.691406 73.375 133.476562 C 73.375 134.265625 74.015625 134.902344 74.800781 134.902344 L 94.1875 134.902344 C 98.316406 134.902344 101.671875 138.261719 101.671875 142.390625 C 101.671875 144.386719 100.894531 146.269531 99.480469 147.683594 C 98.066406 149.097656 96.1875 149.875 94.1875 149.875 L 76.101562 149.875 C 70.9375 149.875 66.25 147.246094 63.5625 142.84375 C 62.148438 140.53125 61.414062 137.875 61.4375 135.164062 C 61.472656 130.636719 61.90625 127.222656 62.722656 125.019531 C 64.15625 121.179688 66.113281 119.019531 68.007812 116.929688 C 69.816406 114.9375 71.6875 112.875 72.769531 109.589844 C 73.648438 106.929688 73.894531 104.425781 74.132812 102.003906 C 74.464844 98.667969 74.773438 95.515625 76.796875 92.480469 C 80.195312 87.382812 91.332031 83.757812 91.441406 83.722656 C 92.191406 83.480469 92.605469 82.675781 92.363281 81.925781 C 92.125 81.175781 91.320312 80.765625 90.570312 81.003906 C 90.4375 81.046875 89.507812 81.351562 88.144531 81.882812 C 90.082031 78.546875 92.492188 73.550781 93.230469 68.363281 C 94.46875 59.636719 90.566406 25.386719 90.398438 23.933594 C 90.308594 23.148438 89.601562 22.585938 88.820312 22.675781 C 88.035156 22.765625 87.472656 23.472656 87.5625 24.257812 C 87.605469 24.609375 91.589844 59.597656 90.402344 67.960938 C 89.363281 75.300781 84.441406 82.527344 83.410156 83.980469 C 80.027344 85.679688 76.328125 88.042969 74.425781 90.898438 C 72.003906 94.527344 71.644531 98.1875 71.292969 101.722656 C 71.070312 103.992188 70.839844 106.335938 70.058594 108.699219 C 69.164062 111.40625 67.648438 113.078125 65.894531 115.011719 C 63.914062 117.195312 61.671875 119.667969 60.046875 124.027344 C 59.113281 126.542969 58.621094 130.28125 58.582031 135.140625 C 58.5625 137.742188 59.125 140.296875 60.21875 142.632812 C 58.378906 143.015625 55.414062 143.449219 53.058594 142.9375 C 51.78125 142.65625 50.148438 141.390625 48.566406 140.167969 C 45.597656 137.871094 42.238281 135.265625 38.519531 136.582031 C 35.851562 137.53125 33.894531 139.882812 33.277344 142.882812 C 32.429688 147.027344 34.246094 151.527344 38.265625 155.234375 C 42.839844 159.453125 48.851562 159.507812 53.683594 159.550781 C 56.546875 159.578125 59.253906 159.601562 59.917969 160.621094 C 60.539062 161.570312 59.070312 163.925781 57.777344 166.003906 C 55.554688 169.574219 52.785156 174.015625 56.011719 177.683594 C 59.425781 181.5625 66.15625 178.203125 72.097656 175.242188 C 75.367188 173.609375 79.078125 171.761719 80.582031 172.101562 C 81.765625 172.371094 81.996094 173.363281 82.128906 176.40625 C 82.253906 179.226562 82.40625 182.738281 85.742188 184.265625 C 89.144531 185.824219 92.910156 183.503906 96.546875 181.257812 C 99.40625 179.496094 102.359375 177.671875 105.011719 177.671875 C 107.433594 177.671875 109.613281 179.628906 112.140625 181.898438 C 115.5625 184.964844 119.4375 188.445312 125.375 188.445312 C 132.160156 188.445312 134.914062 184.894531 137.339844 181.757812 C 138.699219 180.003906 139.980469 178.351562 141.894531 177.4375 C 144.128906 176.367188 148.921875 177.8125 153.554688 179.210938 C 159.605469 181.035156 165.859375 182.917969 169.539062 180.339844 C 173.898438 177.285156 172.5 172.921875 171.480469 169.734375 C 170.902344 167.929688 170.355469 166.226562 170.886719 165.28125 C 171.484375 164.210938 172.929688 164.046875 175.4375 163.847656 C 178.464844 163.609375 182.230469 163.308594 185.679688 160.359375 C 189.007812 157.507812 190.71875 153.859375 190.367188 150.347656 Z M 101.675781 153.441406 C 101.675781 155.871094 99.699219 157.847656 97.269531 157.847656 L 91.105469 157.847656 C 88.675781 157.847656 86.699219 155.871094 86.699219 153.441406 L 86.699219 152.726562 L 94.1875 152.726562 C 96.949219 152.726562 99.546875 151.652344 101.5 149.699219 C 101.558594 149.636719 101.617188 149.574219 101.675781 149.515625 Z M 101.675781 135.269531 C 99.789062 133.289062 97.132812 132.050781 94.1875 132.050781 L 87.625 132.050781 C 88.804688 130.105469 91.046875 127.199219 94.523438 125.691406 C 96.808594 124.703125 99.175781 124.546875 101.675781 124.414062 Z M 103.945312 167.652344 C 105.917969 165.382812 107.152344 163.019531 107.628906 160.582031 C 108.058594 160.660156 108.492188 160.699219 108.933594 160.699219 L 113.128906 160.699219 C 111.644531 164.304688 108.613281 166.605469 103.945312 167.652344 Z M 108.933594 157.847656 C 108.269531 157.847656 107.632812 157.703125 107.039062 157.421875 C 105.511719 156.691406 104.527344 155.128906 104.527344 153.441406 L 104.527344 124.222656 C 107.316406 123.96875 110.429688 123.339844 113.515625 121.101562 C 114.566406 120.335938 115.5625 119.445312 116.484375 118.441406 C 118.367188 119.84375 119.5 122.058594 119.5 124.445312 L 119.5 153.441406 C 119.5 155.871094 117.527344 157.847656 115.097656 157.847656 Z M 116.726562 160.511719 C 118.433594 160.117188 119.910156 159.117188 120.925781 157.75 C 121.335938 158.308594 121.828125 158.8125 122.390625 159.238281 C 121.933594 162.847656 122.375 166.519531 123.746094 170.363281 C 119.835938 167.984375 117.523438 164.726562 116.726562 160.511719 Z M 126.507812 160.691406 C 126.589844 160.695312 126.675781 160.703125 126.757812 160.703125 L 132.792969 160.703125 C 132.835938 162.765625 133.445312 164.738281 134.667969 166.707031 C 130.90625 165.476562 128.207031 163.484375 126.507812 160.691406 Z M 137.328125 153.441406 C 137.328125 155.480469 135.949219 157.242188 133.972656 157.722656 C 133.628906 157.804688 133.273438 157.847656 132.921875 157.847656 L 126.757812 157.847656 C 126.007812 157.847656 125.273438 157.660156 124.625 157.300781 C 123.226562 156.523438 122.355469 155.042969 122.355469 153.441406 L 122.355469 124.445312 C 122.355469 120.316406 125.710938 116.957031 129.839844 116.957031 C 131.839844 116.957031 133.722656 117.738281 135.136719 119.152344 C 136.550781 120.566406 137.328125 122.445312 137.328125 124.445312 Z M 137.328125 153.441406 " fill-opacity="1" fill-rule="nonzero"/></g><g clip-path="url(#365c71814a)"><path fill="#ffffff" d="M 42.617188 133.046875 C 43.714844 133.046875 44.675781 132.761719 45.355469 132.058594 C 48.214844 129.109375 43.570312 121.457031 41.511719 119.457031 C 41.511719 119.457031 41.511719 119.457031 41.507812 119.457031 C 38.988281 117.011719 34.945312 117.074219 32.5 119.601562 C 30.058594 122.125 30.121094 126.164062 32.640625 128.605469 C 34.210938 130.128906 39.109375 133.046875 42.617188 133.046875 Z M 42.617188 133.046875 " fill-opacity="1" fill-rule="nonzero"/></g><g clip-path="url(#c050e6ad99)"><path fill="#ffffff" d="M 40.839844 162.730469 C 38.425781 162.742188 35.667969 163.195312 34.132812 163.832031 C 32.558594 164.484375 31.335938 165.710938 30.6875 167.285156 C 30.035156 168.855469 30.039062 170.585938 30.691406 172.15625 C 31.34375 173.730469 32.566406 174.953125 34.140625 175.605469 C 34.925781 175.929688 35.75 176.089844 36.570312 176.089844 C 37.398438 176.089844 38.226562 175.925781 39.011719 175.597656 C 40.546875 174.964844 42.816406 173.332031 44.53125 171.628906 C 47.03125 169.144531 47.941406 167.015625 47.226562 165.296875 C 46.511719 163.578125 44.378906 162.710938 40.839844 162.730469 Z M 40.839844 162.730469 " fill-opacity="1" fill-rule="nonzero"/></g><g clip-path="url(#0d3b305220)"><path fill="#ffffff" d="M 194.332031 172.945312 C 193.792969 171.328125 192.660156 170.019531 191.140625 169.261719 C 188.574219 167.976562 179.816406 166.117188 177.972656 169.789062 C 176.136719 173.464844 182.867188 179.367188 185.433594 180.652344 C 186.332031 181.101562 187.300781 181.328125 188.277344 181.328125 C 188.957031 181.328125 189.636719 181.21875 190.296875 181 C 191.914062 180.460938 193.21875 179.328125 193.980469 177.808594 C 194.742188 176.285156 194.867188 174.558594 194.332031 172.945312 Z M 194.332031 172.945312 " fill-opacity="1" fill-rule="nonzero"/></g><path fill="#ffffff" d="M 174.386719 138.027344 C 175.007812 138.5625 175.800781 138.789062 176.683594 138.789062 C 180.222656 138.789062 185.238281 135.183594 186.738281 133.441406 C 189.03125 130.777344 188.726562 126.75 186.0625 124.457031 C 184.773438 123.347656 183.125 122.804688 181.429688 122.933594 C 179.734375 123.0625 178.1875 123.84375 177.082031 125.132812 C 175.207031 127.308594 171.269531 135.347656 174.386719 138.027344 Z M 174.386719 138.027344 " fill-opacity="1" fill-rule="nonzero"/><path fill="#ffffff" d="M 147.363281 181.34375 C 146.265625 180.8125 145.082031 180.722656 144.03125 181.085938 C 141.394531 182.003906 140.257812 185.398438 141.445312 188.8125 C 142.4375 191.660156 144.683594 193.492188 146.933594 193.492188 C 147.378906 193.492188 147.828125 193.417969 148.269531 193.265625 C 149.59375 192.804688 150.613281 191.652344 151.0625 190.101562 C 151.464844 188.703125 151.394531 187.082031 150.855469 185.539062 C 150.191406 183.625 148.917969 182.097656 147.363281 181.34375 Z M 147.363281 181.34375 " fill-opacity="1" fill-rule="nonzero"/><path fill="#ffffff" d="M 105.132812 182.15625 C 102.363281 181.855469 99.875 184.429688 99.476562 188.023438 C 99.082031 191.613281 100.941406 194.667969 103.71875 194.976562 C 103.867188 194.996094 104.015625 195.003906 104.164062 195.003906 C 106.757812 195.003906 109 192.511719 109.375 189.113281 C 109.554688 187.488281 109.265625 185.894531 108.5625 184.621094 C 107.78125 183.210938 106.53125 182.3125 105.132812 182.15625 Z M 105.132812 182.15625 " fill-opacity="1" fill-rule="nonzero"/><g clip-path="url(#51fe9c8748)"><path fill="#ffffff" d="M 127.457031 192.457031 C 125.839844 192.671875 124.359375 193.335938 123.292969 194.328125 C 122.109375 195.425781 121.539062 196.855469 121.726562 198.246094 C 121.910156 199.640625 122.839844 200.867188 124.269531 201.617188 C 125.253906 202.132812 126.425781 202.402344 127.648438 202.402344 C 128.019531 202.402344 128.398438 202.378906 128.777344 202.328125 C 130.394531 202.113281 131.875 201.445312 132.941406 200.457031 C 134.125 199.355469 134.695312 197.929688 134.507812 196.539062 C 134.140625 193.769531 131.042969 191.976562 127.457031 192.457031 Z M 127.457031 192.457031 " fill-opacity="1" fill-rule="nonzero"/></g><path fill="#ffffff" d="M 67.960938 182.355469 C 65.402344 184.914062 64.945312 188.464844 66.921875 190.4375 C 67.746094 191.265625 68.847656 191.664062 70.039062 191.664062 C 71.691406 191.664062 73.515625 190.890625 75.003906 189.402344 C 77.558594 186.847656 78.015625 183.296875 76.042969 181.316406 C 74.066406 179.34375 70.515625 179.800781 67.960938 182.355469 Z M 67.960938 182.355469 " fill-opacity="1" fill-rule="nonzero"/><path fill="#ffffff" d="M 82.410156 191.472656 C 81.253906 192.628906 80.484375 194.054688 80.238281 195.488281 C 79.964844 197.082031 80.378906 198.5625 81.371094 199.558594 C 82.164062 200.351562 83.269531 200.773438 84.492188 200.773438 C 84.800781 200.773438 85.117188 200.746094 85.4375 200.691406 C 86.871094 200.445312 88.296875 199.675781 89.453125 198.519531 C 90.886719 197.085938 91.710938 195.269531 91.707031 193.542969 C 91.707031 192.324219 91.273438 191.21875 90.488281 190.4375 C 88.515625 188.460938 84.964844 188.917969 82.410156 191.472656 Z M 82.410156 191.472656 " fill-opacity="1" fill-rule="nonzero"/><g fill="#ffffff" fill-opacity="1"><g transform="translate(146.321996, 171.489553)"><g><path d="M 1.3125 0.046875 C 1.125 0.046875 0.976562 -0.00390625 0.875 -0.109375 C 0.769531 -0.210938 0.71875 -0.347656 0.71875 -0.515625 C 0.71875 -0.691406 0.769531 -0.832031 0.875 -0.9375 C 0.976562 -1.050781 1.125 -1.109375 1.3125 -1.109375 C 1.5 -1.109375 1.644531 -1.054688 1.75 -0.953125 C 1.863281 -0.847656 1.921875 -0.707031 1.921875 -0.53125 C 1.921875 -0.351562 1.863281 -0.210938 1.75 -0.109375 C 1.644531 -0.00390625 1.5 0.046875 1.3125 0.046875 Z M 1.3125 0.046875 "/></g></g></g></svg>