<svg xmlns="http://www.w3.org/2000/svg" xmlns:xlink="http://www.w3.org/1999/xlink" width="300" zoomAndPan="magnify" viewBox="0 0 224.87999 225" height="300" preserveAspectRatio="xMidYMid meet" version="1.0"><defs><clipPath id="75bb37ce52"><path d="M 0 0.0585938 L 224.761719 0.0585938 L 224.761719 224.9375 L 0 224.9375 Z M 0 0.0585938 " clip-rule="nonzero"/></clipPath><clipPath id="9b3b2051b3"><path d="M 22.488281 42.5 L 202.390625 42.5 L 202.390625 182.675781 L 22.488281 182.675781 Z M 22.488281 42.5 " clip-rule="nonzero"/></clipPath><clipPath id="6db6036b9b"><path d="M 201.203125 66.292969 L 117.597656 42.996094 C 117.226562 42.894531 116.839844 42.945312 116.511719 43.128906 C 116.183594 43.316406 115.941406 43.628906 115.835938 43.992188 L 114.226562 49.789062 L 62.121094 49.789062 C 61.332031 49.789062 60.695312 50.425781 60.695312 51.214844 L 60.695312 60.628906 L 23.535156 70.871094 C 23.171875 70.972656 22.859375 71.210938 22.671875 71.542969 C 22.488281 71.871094 22.4375 72.261719 22.539062 72.628906 L 52.363281 181.136719 C 52.464844 181.503906 52.703125 181.8125 53.035156 182 C 53.25 182.125 53.492188 182.1875 53.738281 182.1875 C 53.867188 182.1875 53.992188 182.167969 54.117188 182.136719 L 115.59375 165.191406 L 126.222656 165.191406 L 170.308594 177.476562 C 170.433594 177.507812 170.5625 177.527344 170.691406 177.527344 C 170.933594 177.527344 171.175781 177.464844 171.390625 177.34375 C 171.722656 177.15625 171.964844 176.84375 172.066406 176.480469 L 202.195312 68.058594 C 202.40625 67.292969 201.960938 66.507812 201.203125 66.292969 Z M 60.695312 127.964844 C 58.558594 124.78125 55.789062 122.382812 52.382812 120.824219 C 55.847656 118.011719 58.617188 114.617188 60.695312 110.695312 Z M 54.738281 179 L 25.667969 73.246094 L 60.695312 63.59375 L 60.695312 103.117188 C 58.578125 110.351562 54.644531 115.894531 48.652344 120.058594 C 48.207031 120.367188 47.972656 120.90625 48.054688 121.445312 C 48.136719 121.984375 48.515625 122.425781 49.035156 122.59375 C 54.59375 124.355469 58.40625 128.15625 60.695312 134.1875 L 60.695312 163.761719 C 60.695312 164.550781 61.332031 165.1875 62.121094 165.1875 L 104.847656 165.1875 Z M 63.546875 162.332031 L 63.546875 61.992188 C 63.585938 61.800781 63.589844 61.605469 63.546875 61.40625 L 63.546875 52.644531 L 113.433594 52.644531 L 108.902344 68.945312 C 108.113281 68.839844 107.316406 68.765625 106.515625 68.765625 C 96.863281 68.765625 89.015625 76.625 89.015625 86.289062 C 89.015625 87.988281 89.257812 89.660156 89.738281 91.277344 C 81.863281 93.058594 76.117188 100.113281 76.117188 108.355469 C 76.117188 117.839844 83.683594 125.566406 93.089844 125.851562 L 85.707031 152.417969 C 85.496094 153.175781 85.941406 153.964844 86.695312 154.175781 L 115.964844 162.332031 Z M 93.878906 123.007812 C 93.792969 123.011719 93.707031 123.019531 93.617188 123.019531 C 85.542969 123.019531 78.972656 116.441406 78.972656 108.355469 C 78.972656 100.960938 84.496094 94.710938 91.820312 93.808594 C 92.261719 93.757812 92.652344 93.5 92.878906 93.113281 C 93.101562 92.730469 93.136719 92.261719 92.964844 91.851562 C 92.238281 90.074219 91.867188 88.199219 91.867188 86.285156 C 91.867188 78.199219 98.4375 71.621094 106.515625 71.621094 C 107.058594 71.621094 107.597656 71.652344 108.132812 71.710938 Z M 169.699219 174.335938 L 88.839844 151.804688 L 118.203125 46.132812 L 199.066406 68.664062 Z M 120.910156 90.550781 C 117.5625 105.3125 123.441406 131.453125 133.246094 145.390625 C 133.519531 145.777344 133.960938 145.996094 134.414062 145.996094 C 134.605469 145.996094 134.800781 145.957031 134.984375 145.875 C 150.570312 139.011719 169.085938 119.671875 173.835938 105.300781 C 175.351562 100.703125 175.335938 96.988281 173.785156 94.257812 C 171.734375 90.65625 168.476562 88.492188 164.359375 88 C 159.25 87.382812 153.179688 89.53125 148.625 93.425781 C 146.734375 87.734375 142.648438 82.765625 137.949219 80.640625 C 134.167969 78.933594 130.261719 79.101562 126.648438 81.125 C 123.910156 82.65625 121.984375 85.828125 120.910156 90.550781 Z M 128.042969 83.617188 C 129.578125 82.753906 131.144531 82.324219 132.730469 82.324219 C 134.066406 82.324219 135.417969 82.632812 136.773438 83.246094 C 141.332031 85.308594 145.234375 90.597656 146.484375 96.40625 C 146.597656 96.925781 146.988281 97.339844 147.496094 97.484375 C 148.003906 97.625 148.554688 97.472656 148.917969 97.085938 C 152.984375 92.757812 159.046875 90.253906 164.023438 90.839844 C 167.25 91.222656 169.699219 92.851562 171.304688 95.675781 C 172.425781 97.640625 172.363281 100.660156 171.125 104.402344 C 167.121094 116.523438 150.945312 135.207031 134.910156 142.769531 C 125.082031 128.003906 120.867188 103.636719 123.695312 91.183594 C 124.566406 87.339844 126.070312 84.722656 128.042969 83.617188 Z M 118.871094 59.695312 L 116.257812 62.679688 C 115.738281 63.269531 115.800781 64.171875 116.390625 64.695312 C 116.984375 65.210938 117.882812 65.15625 118.40625 64.5625 L 120.472656 62.199219 L 126.789062 63.960938 L 127.34375 67.050781 C 127.46875 67.742188 128.070312 68.226562 128.746094 68.226562 C 128.832031 68.226562 128.914062 68.222656 129 68.207031 C 129.777344 68.066406 130.292969 67.324219 130.152344 66.546875 L 127.734375 53.097656 C 127.636719 52.554688 127.238281 52.121094 126.710938 51.972656 C 126.179688 51.824219 125.617188 51.996094 125.253906 52.40625 Z M 125.453125 56.519531 L 126.226562 60.839844 L 122.5625 59.816406 Z M 76.59375 67.515625 L 77.957031 70.34375 C 78.199219 70.855469 78.710938 71.152344 79.242188 71.152344 C 79.449219 71.152344 79.660156 71.105469 79.859375 71.007812 C 80.570312 70.667969 80.867188 69.8125 80.523438 69.101562 L 74.59375 56.792969 C 74.355469 56.300781 73.855469 55.988281 73.308594 55.988281 C 72.761719 55.988281 72.261719 56.300781 72.023438 56.796875 L 66.105469 69.105469 C 65.765625 69.8125 66.0625 70.667969 66.773438 71.011719 C 67.484375 71.355469 68.335938 71.054688 68.679688 70.34375 L 70.039062 67.515625 Z M 73.308594 60.707031 L 75.214844 64.660156 L 71.410156 64.660156 Z M 37.417969 74.3125 C 37.054688 73.898438 36.492188 73.730469 35.964844 73.875 C 35.433594 74.019531 35.035156 74.457031 34.9375 74.996094 L 32.496094 88.433594 C 32.351562 89.210938 32.867188 89.953125 33.644531 90.09375 C 33.730469 90.113281 33.8125 90.121094 33.898438 90.121094 C 34.578125 90.121094 35.175781 89.636719 35.300781 88.945312 L 35.863281 85.859375 L 42.183594 84.117188 L 44.25 86.484375 C 44.769531 87.078125 45.671875 87.136719 46.261719 86.621094 C 46.855469 86.101562 46.917969 85.199219 46.398438 84.605469 Z M 36.429688 82.738281 L 37.214844 78.421875 L 40.097656 81.726562 Z M 168.960938 157.089844 L 166.894531 159.449219 L 160.582031 157.6875 L 160.023438 154.597656 C 159.882812 153.820312 159.136719 153.300781 158.367188 153.441406 C 157.589844 153.582031 157.078125 154.328125 157.214844 155.101562 L 159.632812 168.554688 C 159.730469 169.09375 160.128906 169.53125 160.65625 169.679688 C 160.78125 169.710938 160.910156 169.730469 161.039062 169.730469 C 161.441406 169.730469 161.835938 169.554688 162.109375 169.242188 L 171.109375 158.972656 C 171.628906 158.378906 171.570312 157.476562 170.976562 156.957031 C 170.382812 156.441406 169.484375 156.496094 168.960938 157.089844 Z M 161.914062 165.132812 L 161.140625 160.8125 L 164.804688 161.835938 Z M 161.914062 165.132812 " clip-rule="nonzero"/></clipPath><linearGradient x1="63" gradientTransform="matrix(1.426677, 0, 0, 1.428587, 22.487999, 42.944979)" y1="-0.034001" x2="63" gradientUnits="userSpaceOnUse" y2="97.46799" id="6c5c14589f"><stop stop-opacity="1" stop-color="rgb(93.699646%, 79.598999%, 34.498596%)" offset="0"/><stop stop-opacity="1" stop-color="rgb(93.647766%, 79.429626%, 34.660339%)" offset="0.0078125"/><stop stop-opacity="1" stop-color="rgb(93.544006%, 79.081726%, 34.992981%)" offset="0.015625"/><stop stop-opacity="1" stop-color="rgb(93.435669%, 78.72467%, 35.333252%)" offset="0.0234375"/><stop stop-opacity="1" stop-color="rgb(93.328857%, 78.369141%, 35.673523%)" offset="0.03125"/><stop stop-opacity="1" stop-color="rgb(93.222046%, 78.013611%, 36.013794%)" offset="0.0390625"/><stop stop-opacity="1" stop-color="rgb(93.115234%, 77.658081%, 36.352539%)" offset="0.046875"/><stop stop-opacity="1" stop-color="rgb(93.008423%, 77.302551%, 36.69281%)" offset="0.0546875"/><stop stop-opacity="1" stop-color="rgb(92.901611%, 76.947021%, 37.033081%)" offset="0.0625"/><stop stop-opacity="1" stop-color="rgb(92.793274%, 76.591492%, 37.373352%)" offset="0.0703125"/><stop stop-opacity="1" stop-color="rgb(92.686462%, 76.235962%, 37.713623%)" offset="0.078125"/><stop stop-opacity="1" stop-color="rgb(92.579651%, 75.880432%, 38.052368%)" offset="0.0859375"/><stop stop-opacity="1" stop-color="rgb(92.472839%, 75.524902%, 38.392639%)" offset="0.09375"/><stop stop-opacity="1" stop-color="rgb(92.366028%, 75.169373%, 38.73291%)" offset="0.101562"/><stop stop-opacity="1" stop-color="rgb(92.25769%, 74.813843%, 39.073181%)" offset="0.109375"/><stop stop-opacity="1" stop-color="rgb(92.150879%, 74.458313%, 39.413452%)" offset="0.117187"/><stop stop-opacity="1" stop-color="rgb(92.044067%, 74.102783%, 39.752197%)" offset="0.125"/><stop stop-opacity="1" stop-color="rgb(91.937256%, 73.747253%, 40.092468%)" offset="0.132812"/><stop stop-opacity="1" stop-color="rgb(91.830444%, 73.391724%, 40.432739%)" offset="0.140625"/><stop stop-opacity="1" stop-color="rgb(91.723633%, 73.036194%, 40.77301%)" offset="0.148438"/><stop stop-opacity="1" stop-color="rgb(91.615295%, 72.680664%, 41.113281%)" offset="0.15625"/><stop stop-opacity="1" stop-color="rgb(91.508484%, 72.325134%, 41.452026%)" offset="0.164062"/><stop stop-opacity="1" stop-color="rgb(91.401672%, 71.969604%, 41.792297%)" offset="0.171875"/><stop stop-opacity="1" stop-color="rgb(91.294861%, 71.614075%, 42.132568%)" offset="0.179688"/><stop stop-opacity="1" stop-color="rgb(91.188049%, 71.258545%, 42.472839%)" offset="0.1875"/><stop stop-opacity="1" stop-color="rgb(91.081238%, 70.903015%, 42.81311%)" offset="0.195312"/><stop stop-opacity="1" stop-color="rgb(90.9729%, 70.545959%, 43.151855%)" offset="0.203125"/><stop stop-opacity="1" stop-color="rgb(90.866089%, 70.19043%, 43.492126%)" offset="0.210937"/><stop stop-opacity="1" stop-color="rgb(90.759277%, 69.8349%, 43.832397%)" offset="0.21875"/><stop stop-opacity="1" stop-color="rgb(90.652466%, 69.47937%, 44.172668%)" offset="0.226562"/><stop stop-opacity="1" stop-color="rgb(90.545654%, 69.12384%, 44.512939%)" offset="0.234375"/><stop stop-opacity="1" stop-color="rgb(90.438843%, 68.768311%, 44.851685%)" offset="0.242187"/><stop stop-opacity="1" stop-color="rgb(90.330505%, 68.412781%, 45.191956%)" offset="0.25"/><stop stop-opacity="1" stop-color="rgb(90.223694%, 68.057251%, 45.532227%)" offset="0.257812"/><stop stop-opacity="1" stop-color="rgb(90.116882%, 67.701721%, 45.872498%)" offset="0.265625"/><stop stop-opacity="1" stop-color="rgb(90.010071%, 67.346191%, 46.212769%)" offset="0.273437"/><stop stop-opacity="1" stop-color="rgb(89.903259%, 66.990662%, 46.551514%)" offset="0.28125"/><stop stop-opacity="1" stop-color="rgb(89.796448%, 66.635132%, 46.891785%)" offset="0.289062"/><stop stop-opacity="1" stop-color="rgb(89.68811%, 66.279602%, 47.232056%)" offset="0.296875"/><stop stop-opacity="1" stop-color="rgb(89.581299%, 65.924072%, 47.572327%)" offset="0.304688"/><stop stop-opacity="1" stop-color="rgb(89.474487%, 65.568542%, 47.912598%)" offset="0.3125"/><stop stop-opacity="1" stop-color="rgb(89.367676%, 65.213013%, 48.251343%)" offset="0.320312"/><stop stop-opacity="1" stop-color="rgb(89.260864%, 64.857483%, 48.591614%)" offset="0.328125"/><stop stop-opacity="1" stop-color="rgb(89.154053%, 64.501953%, 48.931885%)" offset="0.335938"/><stop stop-opacity="1" stop-color="rgb(89.045715%, 64.146423%, 49.272156%)" offset="0.34375"/><stop stop-opacity="1" stop-color="rgb(88.938904%, 63.790894%, 49.612427%)" offset="0.351562"/><stop stop-opacity="1" stop-color="rgb(88.832092%, 63.435364%, 49.951172%)" offset="0.359375"/><stop stop-opacity="1" stop-color="rgb(88.725281%, 63.079834%, 50.291443%)" offset="0.367187"/><stop stop-opacity="1" stop-color="rgb(88.618469%, 62.724304%, 50.631714%)" offset="0.375"/><stop stop-opacity="1" stop-color="rgb(88.511658%, 62.367249%, 50.971985%)" offset="0.382812"/><stop stop-opacity="1" stop-color="rgb(88.40332%, 62.011719%, 51.312256%)" offset="0.390625"/><stop stop-opacity="1" stop-color="rgb(88.296509%, 61.656189%, 51.651001%)" offset="0.398437"/><stop stop-opacity="1" stop-color="rgb(88.189697%, 61.300659%, 51.991272%)" offset="0.40625"/><stop stop-opacity="1" stop-color="rgb(88.082886%, 60.945129%, 52.331543%)" offset="0.414062"/><stop stop-opacity="1" stop-color="rgb(87.976074%, 60.5896%, 52.671814%)" offset="0.421875"/><stop stop-opacity="1" stop-color="rgb(87.869263%, 60.23407%, 53.012085%)" offset="0.429687"/><stop stop-opacity="1" stop-color="rgb(87.760925%, 59.87854%, 53.35083%)" offset="0.4375"/><stop stop-opacity="1" stop-color="rgb(87.654114%, 59.52301%, 53.691101%)" offset="0.445312"/><stop stop-opacity="1" stop-color="rgb(87.547302%, 59.16748%, 54.031372%)" offset="0.453125"/><stop stop-opacity="1" stop-color="rgb(87.440491%, 58.811951%, 54.371643%)" offset="0.460938"/><stop stop-opacity="1" stop-color="rgb(87.333679%, 58.456421%, 54.711914%)" offset="0.46875"/><stop stop-opacity="1" stop-color="rgb(87.226868%, 58.100891%, 55.050659%)" offset="0.476562"/><stop stop-opacity="1" stop-color="rgb(87.11853%, 57.745361%, 55.39093%)" offset="0.484375"/><stop stop-opacity="1" stop-color="rgb(87.011719%, 57.389832%, 55.731201%)" offset="0.492187"/><stop stop-opacity="1" stop-color="rgb(86.904907%, 57.034302%, 56.071472%)" offset="0.5"/><stop stop-opacity="1" stop-color="rgb(86.798096%, 56.678772%, 56.411743%)" offset="0.507812"/><stop stop-opacity="1" stop-color="rgb(86.691284%, 56.323242%, 56.750488%)" offset="0.515625"/><stop stop-opacity="1" stop-color="rgb(86.584473%, 55.967712%, 57.090759%)" offset="0.523438"/><stop stop-opacity="1" stop-color="rgb(86.476135%, 55.612183%, 57.43103%)" offset="0.53125"/><stop stop-opacity="1" stop-color="rgb(86.369324%, 55.256653%, 57.771301%)" offset="0.539062"/><stop stop-opacity="1" stop-color="rgb(86.262512%, 54.901123%, 58.111572%)" offset="0.546875"/><stop stop-opacity="1" stop-color="rgb(86.155701%, 54.545593%, 58.450317%)" offset="0.554687"/><stop stop-opacity="1" stop-color="rgb(86.048889%, 54.188538%, 58.790588%)" offset="0.5625"/><stop stop-opacity="1" stop-color="rgb(85.942078%, 53.833008%, 59.130859%)" offset="0.570312"/><stop stop-opacity="1" stop-color="rgb(85.83374%, 53.477478%, 59.47113%)" offset="0.578125"/><stop stop-opacity="1" stop-color="rgb(85.726929%, 53.121948%, 59.811401%)" offset="0.585938"/><stop stop-opacity="1" stop-color="rgb(85.620117%, 52.766418%, 60.150146%)" offset="0.59375"/><stop stop-opacity="1" stop-color="rgb(85.513306%, 52.410889%, 60.490417%)" offset="0.601562"/><stop stop-opacity="1" stop-color="rgb(85.406494%, 52.055359%, 60.830688%)" offset="0.609375"/><stop stop-opacity="1" stop-color="rgb(85.298157%, 51.699829%, 61.170959%)" offset="0.617188"/><stop stop-opacity="1" stop-color="rgb(85.191345%, 51.344299%, 61.51123%)" offset="0.625"/><stop stop-opacity="1" stop-color="rgb(85.084534%, 50.98877%, 61.849976%)" offset="0.632812"/><stop stop-opacity="1" stop-color="rgb(84.977722%, 50.63324%, 62.190247%)" offset="0.640625"/><stop stop-opacity="1" stop-color="rgb(84.870911%, 50.27771%, 62.530518%)" offset="0.648438"/><stop stop-opacity="1" stop-color="rgb(84.764099%, 49.92218%, 62.870789%)" offset="0.65625"/><stop stop-opacity="1" stop-color="rgb(84.655762%, 49.56665%, 63.21106%)" offset="0.664062"/><stop stop-opacity="1" stop-color="rgb(84.54895%, 49.211121%, 63.549805%)" offset="0.671875"/><stop stop-opacity="1" stop-color="rgb(84.442139%, 48.855591%, 63.890076%)" offset="0.679688"/><stop stop-opacity="1" stop-color="rgb(84.335327%, 48.500061%, 64.230347%)" offset="0.6875"/><stop stop-opacity="1" stop-color="rgb(84.228516%, 48.144531%, 64.570618%)" offset="0.695312"/><stop stop-opacity="1" stop-color="rgb(84.121704%, 47.789001%, 64.910889%)" offset="0.703125"/><stop stop-opacity="1" stop-color="rgb(84.013367%, 47.433472%, 65.249634%)" offset="0.710938"/><stop stop-opacity="1" stop-color="rgb(83.906555%, 47.077942%, 65.589905%)" offset="0.71875"/><stop stop-opacity="1" stop-color="rgb(83.799744%, 46.722412%, 65.930176%)" offset="0.726562"/><stop stop-opacity="1" stop-color="rgb(83.692932%, 46.366882%, 66.270447%)" offset="0.734375"/><stop stop-opacity="1" stop-color="rgb(83.586121%, 46.009827%, 66.610718%)" offset="0.742188"/><stop stop-opacity="1" stop-color="rgb(83.479309%, 45.654297%, 66.949463%)" offset="0.75"/><stop stop-opacity="1" stop-color="rgb(83.370972%, 45.298767%, 67.289734%)" offset="0.757812"/><stop stop-opacity="1" stop-color="rgb(83.26416%, 44.943237%, 67.630005%)" offset="0.765625"/><stop stop-opacity="1" stop-color="rgb(83.157349%, 44.587708%, 67.970276%)" offset="0.773438"/><stop stop-opacity="1" stop-color="rgb(83.050537%, 44.232178%, 68.310547%)" offset="0.78125"/><stop stop-opacity="1" stop-color="rgb(82.943726%, 43.876648%, 68.649292%)" offset="0.789062"/><stop stop-opacity="1" stop-color="rgb(82.836914%, 43.521118%, 68.989563%)" offset="0.796875"/><stop stop-opacity="1" stop-color="rgb(82.728577%, 43.165588%, 69.329834%)" offset="0.804688"/><stop stop-opacity="1" stop-color="rgb(82.621765%, 42.810059%, 69.670105%)" offset="0.8125"/><stop stop-opacity="1" stop-color="rgb(82.514954%, 42.454529%, 70.010376%)" offset="0.820312"/><stop stop-opacity="1" stop-color="rgb(82.408142%, 42.098999%, 70.349121%)" offset="0.828125"/><stop stop-opacity="1" stop-color="rgb(82.301331%, 41.743469%, 70.689392%)" offset="0.835938"/><stop stop-opacity="1" stop-color="rgb(82.194519%, 41.387939%, 71.029663%)" offset="0.84375"/><stop stop-opacity="1" stop-color="rgb(82.086182%, 41.03241%, 71.369934%)" offset="0.851562"/><stop stop-opacity="1" stop-color="rgb(81.97937%, 40.67688%, 71.710205%)" offset="0.859375"/><stop stop-opacity="1" stop-color="rgb(81.872559%, 40.32135%, 72.04895%)" offset="0.867188"/><stop stop-opacity="1" stop-color="rgb(81.765747%, 39.96582%, 72.389221%)" offset="0.875"/><stop stop-opacity="1" stop-color="rgb(81.658936%, 39.610291%, 72.729492%)" offset="0.882812"/><stop stop-opacity="1" stop-color="rgb(81.552124%, 39.254761%, 73.069763%)" offset="0.890625"/><stop stop-opacity="1" stop-color="rgb(81.443787%, 38.899231%, 73.410034%)" offset="0.898438"/><stop stop-opacity="1" stop-color="rgb(81.336975%, 38.543701%, 73.748779%)" offset="0.90625"/><stop stop-opacity="1" stop-color="rgb(81.230164%, 38.186646%, 74.08905%)" offset="0.914062"/><stop stop-opacity="1" stop-color="rgb(81.123352%, 37.831116%, 74.429321%)" offset="0.921875"/><stop stop-opacity="1" stop-color="rgb(81.016541%, 37.475586%, 74.769592%)" offset="0.929688"/><stop stop-opacity="1" stop-color="rgb(80.909729%, 37.120056%, 75.109863%)" offset="0.9375"/><stop stop-opacity="1" stop-color="rgb(80.801392%, 36.764526%, 75.448608%)" offset="0.945313"/><stop stop-opacity="1" stop-color="rgb(80.69458%, 36.408997%, 75.788879%)" offset="0.953125"/><stop stop-opacity="1" stop-color="rgb(80.587769%, 36.053467%, 76.12915%)" offset="0.960938"/><stop stop-opacity="1" stop-color="rgb(80.480957%, 35.697937%, 76.469421%)" offset="0.96875"/><stop stop-opacity="1" stop-color="rgb(80.374146%, 35.342407%, 76.809692%)" offset="0.976562"/><stop stop-opacity="1" stop-color="rgb(80.267334%, 34.986877%, 77.148438%)" offset="0.984375"/><stop stop-opacity="1" stop-color="rgb(80.158997%, 34.631348%, 77.488708%)" offset="0.992188"/><stop stop-opacity="1" stop-color="rgb(80.052185%, 34.275818%, 77.828979%)" offset="1"/></linearGradient></defs><g clip-path="url(#75bb37ce52)"><path fill="#ffffff" d="M 0 0.0585938 L 224.878906 0.0585938 L 224.878906 224.941406 L 0 224.941406 Z M 0 0.0585938 " fill-opacity="1" fill-rule="nonzero"/><path fill="#333652" d="M 0 0.0585938 L 224.878906 0.0585938 L 224.878906 224.941406 L 0 224.941406 Z M 0 0.0585938 " fill-opacity="1" fill-rule="nonzero"/></g><g clip-path="url(#9b3b2051b3)"><g clip-path="url(#6db6036b9b)"><path fill="url(#6c5c14589f)" d="M 22.488281 42.894531 L 22.488281 182.1875 L 202.390625 182.1875 L 202.390625 42.894531 Z M 22.488281 42.894531 " fill-rule="nonzero"/></g></g></svg>